<?xml version="1.0" standalone="no"?><!DOCTYPE svg PUBLIC "-//W3C//DTD SVG 1.1//EN" "http://www.w3.org/Graphics/SVG/1.1/DTD/svg11.dtd"><svg class="icon" width="200px" height="200.00px" viewBox="0 0 1024 1024" version="1.1" xmlns="http://www.w3.org/2000/svg"><path fill="#2a83ff" d="M512 0C229.6 0 0 229.6 0 512s229.6 512 512 512 512-229.6 512-512S794.4 0 512 0z m314.4 628.8h-160l1.6 2.4c28 68 93.6 121.6 158.4 141.6v49.6c-18.4-2.4-148.8-7.2-220-123.2-14.4-22.4-22.4-40-30.4-59.2-1.6-3.2-4.8-12-4.8-12H560v200.8H448v-200h-11.2l-4.8 12c-8 19.2-16 36.8-29.6 59.2-71.2 116.8-201.6 120.8-220 123.2v-49.6C247.2 752 312 698.4 340.8 631.2l1.6-2.4H181.6v-54.4H448v-28.8h112v28.8h266.4v54.4zM504 424c-86.4-1.6-180.8-0.8-296-19.2V360c277.6 20 576 2.4 592 0v45.6c-115.2 17.6-209.6 17.6-296 18.4z m252 16c-3.2 12-22.4 69.6-48.8 99.2H605.6c11.2-9.6 32.8-40 55.2-99.2h95.2zM565.6 532.8H472.8c-19.2-24-42.4-80.8-44.8-92.8h87.2c24 53.6 40 84 50.4 92.8z m-156.8 6.4H307.2C288 516 261.6 452 258.4 440h95.2c20 56.8 44 89.6 55.2 99.2z m418.4-231.2H695.2v42.4H589.6v-42.4H427.2v42.4H321.6v-42.4H181.6v-54.4h140V216h105.6v37.6h162.4V216h105.6v37.6h132v54.4z"  /></svg>