<?xml version="1.0" standalone="no"?><!DOCTYPE svg PUBLIC "-//W3C//DTD SVG 1.1//EN" "http://www.w3.org/Graphics/SVG/1.1/DTD/svg11.dtd"><svg class="icon" width="200px" height="200.00px" viewBox="0 0 1024 1024" version="1.1" xmlns="http://www.w3.org/2000/svg"><path fill="#2a83ff" d="M522.26279494 805.97637041c-119.95425691 6.50285061-225.48517356-65.70896441-271.49169222-164.15717207-50.55942788-108.17778676-41.02191579-214.98549411 31.16246033-310.30574797 68.81496706-90.87526805 164.46813804-126.9766021 277.74759798-113.44774717 56.2318161 6.71686697 105.80529863 29.80335648 149.0240989 66.48455072 23.44867243 19.91463525 22.92551872 28.813752-3.0712473 43.73280882-22.58894247 12.96911543-45.29129614 25.73335958-67.76317009 38.90734627-62.12919631 36.39766717-124.64252668 72.16425545-186.04735535 109.76005567-32.8837507 20.12133517-39.45976754 52.22218306-21.0798434 85.52665184 19.88353722 36.01901909 58.43052924 44.40412908 99.27135176 20.79265719 121.35726122-70.18138913 242.30843907-141.059707 364.04800568-210.58075145 20.14328629-11.5002577 22.35663231-23.20172935 13.40629685-42.69381609-31.49172013-68.57351179-77.86956859-124.90044708-140.01705692-167.03635232-137.3244559-93.10690606-283.84802077-108.02413422-433.89830815-37.29580979-149.68993134 70.56003539-231.00390749 194.46539022-244.5217851 357.76832011-11.20026727 135.38000406 40.31035238 250.00210631 138.0268742 344.33092703 136.2415627 131.51304799 363.93276582 152.20692691 520.42736689 46.48028589 40.74936246-27.52049977 40.74936246-27.52049977 15.48428231-69.55579805-27.31745717-45.43763403-54.42455349-53.88310779-101.84688427-31.14965607C616.25138387 795.04133819 569.73634263 809.014691 522.26279494 805.97637041z"  /><path fill="#2a83ff" d="M934.18311703 613.592623c-2.25724827-32.52156596-19.89268411-58.93905005-35.11172955-86.17602095-4.9681413-8.89545942-12.93984785-5.47300299-20.0536549-1.41398167-27.89365824 15.96902333-55.7013442 32.07523766-83.80719193 47.65646784-11.94658602 6.62357824-14.05932508 14.64467306-7.15221973 26.28760952 16.00743782 26.98088092 31.89780351 54.03310302 47.24489485 81.38531375 6.66930741 11.88256309 14.66845285 14.60077258 26.17785745 7.3241661 16.80680214-10.62223578 34.15688224-20.47437298 50.38199555-31.91426689C926.29555411 646.55319903 934.77578147 632.23778401 934.18311703 613.592623z"  /></svg>