<?xml version="1.0" standalone="no"?><!DOCTYPE svg PUBLIC "-//W3C//DTD SVG 1.1//EN" "http://www.w3.org/Graphics/SVG/1.1/DTD/svg11.dtd"><svg class="icon" width="200px" height="200.00px" viewBox="0 0 1024 1024" version="1.1" xmlns="http://www.w3.org/2000/svg"><path fill="#2a83ff" d="M523.6 290.4c40.7 10.3 79.7-8.7 87.3-42.5 7.5-33.8-19.3-69.6-60-80-40.7-10.4-79.8 8.7-87.3 42.5s19.4 69.6 60 80zM904 346.5c-8.4-24.2-18.6-47.1-30.3-68.8-33.6-62.2-80.2-113.5-134.6-151.7-9.7-6.7-28.2-17.4-28.8-17.7-0.1-0.1-0.3-0.2-0.4-0.2-100.3-55.8-151.7-43.5-150.9-1.7 0.6 31.2 28.5 39 53.2 51.1 84 41.2 129.3 104.4 106.2 155.8-21.1 47.1-99.7 63.7-181.1 33.7C454 316.2 344.7 243 330 325.6c-12.4 69.8 92 72.1 200.7 186.2 46.6 48.9 58.6 134 31.4 202.4-58.6 103.2-226.6 79.1-302.8-5.2-87.5-96.8-76.1-197.7-71.6-222.5 10.6-50 29.8-90.9 44.7-115.6 15.1-27.2 22.9-45.3 22.6-67.2-0.4-35.3-24.5-58.5-58-60.6-39.9-2.4-69.5 23.3-86.7 61.2-41 88.9-54.5 191.6-33.3 292.9 0.3 1.9 0.6 3.8 1 5.6 1.9 9.9 4.4 19.6 7.3 29.1h-0.1s4 16.2 13.7 38.2c3.1 8 6.3 16 9.7 23.7l-0.3-0.3s0.3 0.5 0.7 1.2c94.2 208.5 326 311.5 537 231.1 224-85.4 339.5-344.7 258-579.3z"  /></svg>