<?xml version="1.0" standalone="no"?><!DOCTYPE svg PUBLIC "-//W3C//DTD SVG 1.1//EN" "http://www.w3.org/Graphics/SVG/1.1/DTD/svg11.dtd"><svg t="1647826630117" class="icon" viewBox="0 0 1024 1024" version="1.1" xmlns="http://www.w3.org/2000/svg" p-id="6266" xmlns:xlink="http://www.w3.org/1999/xlink" width="20" height="20"><defs><style type="text/css"></style></defs><path d="M741.939 95.754H325.955c-131.539 0-157.866 30.505-157.985 155.152 4.099-0.146 4.099 0.608 4.099 0.608h-3.466c-34.467 0-44.053 28.16-44.053 62.877 0 34.724 9.586 62.874 44.053 62.874l-0.231-1.043v87.646l0.231-5.419c-34.467 0-44.053 28.151-44.053 62.867 0 34.733 9.586 62.877 44.053 62.877l-0.231-6.385v96.411l0.231-8.834c-34.467 0-44.053 28.144-44.053 62.858 0 34.733 2.26 70.631 36.728 70.631l6.445-0.068c0.933 109.403 25.781 129.585 158.233 129.585H741.94c115.763 0 153.895-27.271 153.895-136.519V250.759c0-132.162-34.573-155.007-153.895-155.007z m-65.223 464.524c22.632 0 34.427 12.154 35.478 35.059 1.053 22.938-10.835 37.147-38.995 37.043-16.098-0.034-92.892-1.985-92.892-1.985v78.881c0 22.923-21.73 26.91-44.509 26.91-22.774 0-43.138-3.987-43.138-26.91v-78.881h-96.409c-22.586 0-35.059-12.137-35.059-35.059 0-15.236-0.298-5.153-0.205-6.283 1.739-21.329 13.781-28.776 35.264-28.776h96.41v-52.588h-96.41c-16.597 0-32.969-3.989-32.969-41.88 0-22.929 13.943-37 36.728-37h73.452l-50.122-46.383-23.419-23.588c-15.185-15.296-15.526-39.304-2.038-55.61 0.805-0.976 1.139-2.191 2.038-3.115 16.109-16.212 42.197-16.212 58.305 0l3.074 3.115 75.003 75.527 78.069-78.642c16.108-16.212 42.188-16.212 58.287 0 16.1 16.21 16.1 42.522 0 58.725l-70.648 69.971h73.456c22.775 0 36.727 14.071 36.727 37 0 22.93-12.702 41.88-35.478 41.88h-96.41v52.588h96.41z" fill="#FFB90F" p-id="6267"></path></svg>