<?xml version="1.0" standalone="no"?><!DOCTYPE svg PUBLIC "-//W3C//DTD SVG 1.1//EN" "http://www.w3.org/Graphics/SVG/1.1/DTD/svg11.dtd"><svg t="1647826459031" class="icon" viewBox="0 0 1024 1024" version="1.1" xmlns="http://www.w3.org/2000/svg" p-id="4235" xmlns:xlink="http://www.w3.org/1999/xlink" width="20" height="20"><defs><style type="text/css"></style></defs><path d="M512 512m-512 0a512 512 0 1 0 1024 0 512 512 0 1 0-1024 0Z" fill="#FF9F22" p-id="4236"></path><path d="M834.653091 335.872C834.56 304.686545 809.937455 279.272727 779.729455 279.272727H243.944727c-30.72 0-54.830545 24.855273-54.923636 56.599273-0.372364 8.517818-6.330182 149.131636 0.046545 197.12 10.472727 80.663273 86.667636 222.813091 217.460364 276.526545v36.910546c0 20.945455 16.477091 37.934545 36.724364 37.934545h2.746181c27.182545 0 98.676364-4.468364 175.662546-45.847272 84.573091-45.474909 149.178182-120.087273 192.139636-221.882182 8.657455-21.783273 18.850909-57.623273 21.690182-83.781818 5.445818-48.872727-0.465455-188.462545-0.884364-196.980364zM428.264727 766.603636c-122.414545-47.104-186.274909-179.991273-193.303272-240.733091-4.328727-35.607273-2.048-142.568727 0.046545-189.253818v-0.465454c0-5.12 4.049455-9.309091 9.029818-9.309091H779.636364c4.980364 0 8.983273 4.189091 8.983272 9.309091v1.396363c2.327273 50.082909 5.213091 154.065455 0.093091 189.253819a333.172364 333.172364 0 0 1-18.525091 71.074909c-88.901818 212.247273-257.117091 237.149091-317.672727 238.871272v-61.346909l-24.296727-8.843636z" fill="#FFFFFF" p-id="4237"></path><path d="M671.138909 601.460364a24.436364 24.436364 0 0 0-5.864727-33.605819 22.155636 22.155636 0 0 0-13.218909-4.468363 23.598545 23.598545 0 0 0-19.269818 10.658909c-31.790545 47.616-83.642182 76.055273-138.705455 76.055273-92.904727 0-168.494545-78.336-168.494545-174.685091a23.924364 23.924364 0 0 0-23.133091-24.017455 23.924364 23.924364 0 0 0-23.179637 24.017455C279.272727 598.295273 375.621818 698.181818 494.033455 698.181818c70.702545 0 136.936727-36.212364 177.105454-96.721454z m11.170909-102.074182a40.494545 40.494545 0 0 0 41.611637 0A43.566545 43.566545 0 0 0 744.727273 462.056727c0-23.784727-18.618182-43.147636-41.611637-43.147636-22.900364 0-41.565091 19.362909-41.565091 43.147636 0 15.36 7.959273 29.649455 20.805819 37.329455z" fill="#FFFFFF" p-id="4238"></path></svg>