<?xml version="1.0" standalone="no"?><!DOCTYPE svg PUBLIC "-//W3C//DTD SVG 1.1//EN" "http://www.w3.org/Graphics/SVG/1.1/DTD/svg11.dtd"><svg t="1647594053262" class="icon" viewBox="0 0 1024 1024" version="1.1" xmlns="http://www.w3.org/2000/svg" p-id="3724" width="20" height="20" xmlns:xlink="http://www.w3.org/1999/xlink"><defs><style type="text/css"></style></defs><path d="M659.968 481.28l-27.306667-69.461333a31.744 31.744 0 0 0-32.085333-21.333334 32.938667 32.938667 0 0 0-30.378667 23.381334l-28.16 88.746666-54.272-192.512a33.109333 33.109333 0 0 0-63.146666-2.56l-63.829334 175.104h-76.629333a34.133333 34.133333 0 0 0 0 68.266667h99.84A34.133333 34.133333 0 0 0 415.061333 529.066667l36.693334-100.693334 56.32 200.192a34.133333 34.133333 0 0 0 31.402666 24.576 33.109333 33.109333 0 0 0 31.402667-23.552l34.133333-105.130666 1.365334 3.413333a32.938667 32.938667 0 0 0 30.208 21.333333l96.768 1.706667a34.133333 34.133333 0 0 0 0-68.266667zM1006.933333 346.965333v14.848a299.178667 299.178667 0 0 1-21.674666 110.762667 287.402667 287.402667 0 0 1-60.928 93.696L536.064 964.096a34.986667 34.986667 0 0 1-51.2 0l-387.413333-397.653333a290.133333 290.133333 0 0 1-61.098667-93.866667A302.08 302.08 0 0 1 13.141333 361.813333v-14.848A293.376 293.376 0 0 1 96.085333 155.477333a280.064 280.064 0 0 1 148.138667-80.213333 22.698667 22.698667 0 0 1 4.778667 0 269.482667 269.482667 0 0 1 48.469333-4.437333 279.381333 279.381333 0 0 1 199.168 85.333333l13.312 13.482667 13.312-13.482667a279.210667 279.210667 0 0 1 199.168-85.333333 273.066667 273.066667 0 0 1 48.469333 4.437333 21.162667 21.162667 0 0 1 4.608 0 281.088 281.088 0 0 1 148.48 80.213333A291.669333 291.669333 0 0 1 1006.933333 346.965333z" fill="#E9575C" opacity=".9" p-id="3725"></path></svg>