<?xml version="1.0" standalone="no"?><!DOCTYPE svg PUBLIC "-//W3C//DTD SVG 1.1//EN" "http://www.w3.org/Graphics/SVG/1.1/DTD/svg11.dtd"><svg t="1647826577918" class="icon" viewBox="0 0 1024 1024" version="1.1" xmlns="http://www.w3.org/2000/svg" p-id="5439" xmlns:xlink="http://www.w3.org/1999/xlink" width="20" height="20"><defs><style type="text/css"></style></defs><path d="M687.287 180.041c75.63-73.216 152.722-98.304 153.563-98.56a35.182 35.182 0 0 0 22.419-43.776 35.255 35.255 0 0 0-43.41-23.26c-4.609 1.317-111.507 35.402-206.922 141.203a447.67 447.67 0 0 0-104.082-12.105c-33.756 0.256-66.524 4.425-98.085 11.849C315.465 49.737 208.75 15.726 204.142 14.299a35.474 35.474 0 0 0-43.41 23.37 35.072 35.072 0 0 0 22.564 43.739c0.841 0.366 77.312 24.759 153.417 98.523C180.553 247.918 71.607 403.712 72.923 583.9a437.138 437.138 0 0 0 268.179 399.8 35.62 35.62 0 0 0 45.568-19.054 35.035 35.035 0 0 0-18.03-45.751 366.885 366.885 0 0 1-225.06-335.47c-1.5-202.35 162.633-368.091 365.823-369.518a366.19 366.19 0 0 1 261.303 105.619 363.74 363.74 0 0 1 109.788 258.67A364.763 364.763 0 0 1 597.65 937.8l-12.507 2.45c-12.142 1.902-16.238-1.718-18.176-3.474-13.824-12.361-18.725-50.066-17.664-71.534l-2.524-139.154c158.903-11.959 181.029-171.118 181.76-176.86-6.144-0.438-183.04-9.252-213.65 168.485l-3.291 0.073C478.574 540.233 301.64 551.57 295.57 552.01c0.732 5.778 24.905 161.902 180.553 173.897l2.597 136.924c-0.585 13.75-1.573 87.917 40.887 126.098 11.776 10.606 30.94 22.053 59.502 22.053 5.741 0 11.849-0.476 18.358-1.5l15.068-2.962c200.85-46.812 340.114-223.196 338.615-428.873a433.518 433.518 0 0 0-130.816-308.297 440.54 440.54 0 0 0-133.047-89.308z" fill="#29AB91" p-id="5440"></path></svg>