<?xml version="1.0" standalone="no"?><!DOCTYPE svg PUBLIC "-//W3C//DTD SVG 1.1//EN" "http://www.w3.org/Graphics/SVG/1.1/DTD/svg11.dtd"><svg t="1647593817172" class="icon" viewBox="0 0 1024 1024" version="1.1" xmlns="http://www.w3.org/2000/svg" p-id="5214" xmlns:xlink="http://www.w3.org/1999/xlink" width="200" height="200"><defs><style type="text/css"></style></defs><path d="M857.582796 0H166.438431C57.711949 0 34.186335 29.883887 34.186335 147.194039v57.542378a1610.232847 1610.232847 0 0 0 264.504192 117.310152 225.082894 225.082894 0 0 1 426.640174 0 1525.985719 1525.985719 0 0 0 264.186277-123.668426V144.968643C989.516978 29.883887 966.309279 0 857.582796 0z" fill="#FF524C" p-id="5215"></path><path d="M511.056873 605.943496a220.314188 220.314188 0 0 1-222.539584-204.736417 2635.186588 2635.186588 0 0 1-254.330954-104.911519v604.036014c0 115.084756 23.525613 123.668426 132.252096 123.668426h688.918969c108.726482 0 132.252096-8.58367 132.252096-123.668426V288.029804a1877.916175 1877.916175 0 0 1-254.330953 110.633965A217.135051 217.135051 0 0 1 511.056873 605.625582z" fill="#FF524C" p-id="5216"></path><path d="M574.639611 238.753182l-44.825831 100.142813c-4.132878 8.58367-6.358274 15.259857-8.265756 19.392735l-56.90655-119.535548h-66.126048l74.709717 134.477492H415.682765v38.149643h68.03353v31.791369H415.682765v38.467556h68.03353v55.634896h63.582738v-55.316982h66.126048V445.079168h-65.49022v-31.791369h66.126048v-40.057125H558.743926l76.6172-134.477492z" fill="#FF524C" p-id="5217"></path></svg>