<?xml version="1.0" standalone="no"?><!DOCTYPE svg PUBLIC "-//W3C//DTD SVG 1.1//EN" "http://www.w3.org/Graphics/SVG/1.1/DTD/svg11.dtd"><svg t="1647826216890" class="icon" viewBox="0 0 1024 1024" version="1.1" xmlns="http://www.w3.org/2000/svg" p-id="2690" xmlns:xlink="http://www.w3.org/1999/xlink" width="20" height="20"><defs><style type="text/css"></style></defs><path d="M892.4672 576.3072c0 209.5616-169.8816 379.392-379.392 379.392s-379.392-169.8816-379.392-379.392c0-191.3344 200.4992-390.2976 341.0944-500.6336 22.9376-18.0224 54.9376-19.3536 79.0528-2.8672 161.8432 110.6432 338.6368 310.3232 338.6368 503.5008z" fill="#2a83ff" p-id="2691"></path><path d="M678.8608 441.9584h-165.7344V295.3728c0-21.4016-28.416-28.928-39.0144-10.2912l-144.9984 293.8368c-7.8848 13.9264 2.1504 31.1808 18.1248 31.1808h165.7344v152.5248c0 21.4016 28.416 28.928 39.0144 10.2912l144.9984-299.776c7.936-13.9264-2.0992-31.1808-18.1248-31.1808z" fill="#f3faff" p-id="2692" data-spm-anchor-id="a313x.7781069.0.i14" class="selected"></path></svg>