<?xml version="1.0" standalone="no"?><!DOCTYPE svg PUBLIC "-//W3C//DTD SVG 1.1//EN" "http://www.w3.org/Graphics/SVG/1.1/DTD/svg11.dtd"><svg class="icon" width="200px" height="200.00px" viewBox="0 0 1024 1024" version="1.1" xmlns="http://www.w3.org/2000/svg"><path d="M476.1088 916.224H219.904c-54.4256 0-98.7136-44.288-98.7136-98.7136V202.3424c0-54.4256 44.288-98.7136 98.7136-98.7136h421.4272c54.4256 0 98.7136 44.288 98.7136 98.7136v101.5808h20.0192c53.504 0 97.024 43.52 97.024 97.024v37.376c0 16.9472-13.7728 30.72-30.72 30.72s-30.72-13.7728-30.72-30.72v-37.376c0-19.6096-15.9744-35.584-35.584-35.584h-50.7392c-16.9472 0-30.72-13.7728-30.72-30.72V202.3424c0-20.5824-16.7424-37.2736-37.2736-37.2736H219.904c-20.5824 0-37.2736 16.7424-37.2736 37.2736v615.168c0 20.5824 16.7424 37.2736 37.2736 37.2736h256.2048c16.9472 0 30.72 13.7728 30.72 30.72s-13.7728 30.72-30.72 30.72z" fill="#1296db" /><path d="M841.7792 725.4528c21.8624-22.4768 35.3792-53.0944 35.3792-86.8352 0-68.7104-55.8592-124.5696-124.5696-124.5696s-124.5696 55.8592-124.5696 124.5696c0 33.7408 13.5168 64.3584 35.3792 86.8352-56.576 31.488-94.976 91.8528-94.976 161.0752 0 16.9472 13.7728 30.72 30.72 30.72s30.72-13.7728 30.72-30.72c0-67.6864 55.0912-122.7776 122.7776-122.7776s122.7776 55.0912 122.7776 122.7776c0 16.9472 13.7728 30.72 30.72 30.72s30.72-13.7728 30.72-30.72c-0.0512-69.2224-38.4512-129.6384-95.0784-161.0752z m-89.1904-149.9648c34.816 0 63.1296 28.3136 63.1296 63.1296s-28.3136 63.1296-63.1296 63.1296-63.1296-28.3136-63.1296-63.1296 28.3136-63.1296 63.1296-63.1296z" fill="#4F95FC" /><path d="M516.4544 424.9088H293.9904c-16.9472 0-30.72-13.7728-30.72-30.72s13.7728-30.72 30.72-30.72h222.464c16.9472 0 30.72 13.7728 30.72 30.72s-13.7728 30.72-30.72 30.72zM516.4544 614.4H293.9904c-16.9472 0-30.72-13.7728-30.72-30.72s13.7728-30.72 30.72-30.72h222.464c16.9472 0 30.72 13.7728 30.72 30.72s-13.7728 30.72-30.72 30.72z" fill="#1296db" /></svg>