<?xml version="1.0" standalone="no"?><!DOCTYPE svg PUBLIC "-//W3C//DTD SVG 1.1//EN" "http://www.w3.org/Graphics/SVG/1.1/DTD/svg11.dtd"><svg class="icon" width="200px" height="200.00px" viewBox="0 0 1024 1024" version="1.1" xmlns="http://www.w3.org/2000/svg"><path d="M163.84 163.84h159.9488L491.52 326.36928l-108.87168 97.8944a81.92 81.92 0 0 1-104.57088 4.096c-20.0704-15.44192-35.0208-15.89248-44.76928-1.47456-15.31904 22.69184 42.3936 109.11744 173.13792 259.2768a81.92 81.92 0 0 1 20.11136 53.82144V819.2a81.92 81.92 0 0 1-81.92 81.92H163.84a81.92 81.92 0 0 1-81.92-81.92V245.76a81.92 81.92 0 0 1 81.92-81.92z" fill="#1776FF" /><path d="M855.4496 163.84h-101.9904l-350.208 298.1888 65.7408 100.92544a81.92 81.92 0 0 0 125.1328 14.58176c82.65728-78.72512 130.41664-108.58496 143.19616-89.62048 15.07328 22.28224-26.2144 88.39168-123.904 198.2464a81.92 81.92 0 0 0-20.72576 54.43584V819.2a81.92 81.92 0 0 0 81.92 81.92h180.8384a81.92 81.92 0 0 0 81.92-81.92V245.76a81.92 81.92 0 0 0-81.92-81.92z" fill="#00B6FF" /></svg>