<?xml version="1.0" standalone="no"?><!DOCTYPE svg PUBLIC "-//W3C//DTD SVG 1.1//EN" "http://www.w3.org/Graphics/SVG/1.1/DTD/svg11.dtd"><svg class="icon" width="200px" height="200.00px" viewBox="0 0 1024 1024" version="1.1" xmlns="http://www.w3.org/2000/svg"><path d="M874.5 477.6h50.2V262.7c-0.1-53.1-37.9-96.1-90.9-96.2H243.4c-53.1 0.1-140.8 66.4-140.8 119.5l44.7 133h29.3c41.6 0 75.3 33.7 75.3 75.3s2.5 94.9-39.1 94.9l-8.2 36.9-57.4 99.9c0.1 53.1 43.1 96.1 96.2 96.2l554 36.4c53.1-0.1 127.3-79.5 127.3-132.6V586.4h-50.2c-41.6 0-66.9-12.8-66.9-54.4s46.2-54.4 87.8-54.4h-20.9z m-144 35.9c21.6 0 9.9 18 9.9 38.7 0 20.6 11.6 36-9.9 36l-29 85.3-31.6 24.4c-27.9 26.5-99.9 19.7-121.4 19.7s-138.1 8.4-138.1-12.2l-40.1-20.7-32.1-50.9c-21.6 0-29.1-50.5-29.1-71.1s-35.5-33.8-13.9-33.8l-6.9-15 1.6-64.8 19.3-22.3c-21.6 0 18.3 10.9 18.3-9.7s-3.1-48.8 18.4-48.8l28.1-35.5 13.7-7.7c9.8-15.7 10.6-10.6 25.7-25.1s18.4-4.2 44.4-3.5l86.4-0.7 74.1-1.4c21.8 0.9 21.8 0.9 36.9 15.3 15.1 14.5 48.3 11.4 33.3 26.1l26.2 30.6 15.9 13.3c21.6 0 7.9 20.9 7.9 41.5s13.7 33.2-0.1 41.7l-8-3.1-7.8 50.6 7.9 3.1z" fill="#2280BF" /><path d="M851.4 457.7h29.3V301.3c-0.1-53.1-43.1-96.1-96.2-96.2H194.1c-53.1 0.1-96.1 43.1-96.2 96.2v156.4h29.3c41.6 0 75.3 33.7 75.3 75.3s-33.7 75.3-75.3 75.3H97.9v156.4c0.1 53.1 43.1 96.1 96.2 96.2h590.4c53.1-0.1 96.1-43.1 96.2-96.2V608.3h-29.3c-41.6 0-75.3-33.7-75.3-75.3 0.1-41.6 33.7-75.3 75.3-75.3z m-225.5 89.9c16.2 0 29.3 13.1 29.3 29.3s-13.1 29.3-29.3 29.3H518.6v72.2c0 16.2-13.1 29.3-29.3 29.3-16.2 0-29.3-13.1-29.3-29.3v-72.2H352.8c-16.2 0-29.3-13.1-29.3-29.3s13.1-29.3 29.3-29.3H460v-46.3H352.8c-16.2 0-29.3-13.1-29.3-29.3s13.1-29.3 29.3-29.3h65.9l-34.4-34.4c-11.2-11.5-11.1-29.8 0.2-41.2 11.4-11.3 29.7-11.4 41.2-0.2l63.7 63.7L553 367c11.5-11.2 29.8-11.1 41.2 0.2 11.4 11.4 11.4 29.7 0.2 41.2L560 442.8h65.9c16.2 0 29.3 13.1 29.3 29.3s-13.1 29.3-29.3 29.3H518.6v46.3l107.3-0.1z" fill="#4EB3FF" /></svg>