<?xml version="1.0" standalone="no"?><!DOCTYPE svg PUBLIC "-//W3C//DTD SVG 1.1//EN" "http://www.w3.org/Graphics/SVG/1.1/DTD/svg11.dtd"><svg t="1647826539808" class="icon" viewBox="0 0 1024 1024" version="1.1" xmlns="http://www.w3.org/2000/svg" p-id="5058" xmlns:xlink="http://www.w3.org/1999/xlink" width="20" height="20"><defs><style type="text/css"></style></defs><path d="M994.05866667 772.02133333c0 265.64266667-92 251.60533333-480.992 251.60533334S32.07466667 1037.67466667 32.07466667 772.02133333 247.424 291.02933333 513.06666667 291.02933333s480.992 215.34933333 480.992 480.992z" fill="#EA541F" p-id="5059"></path><path d="M757.86666667 60.768c-40.90666667-40.90666667-104.896-43.78666667-149.62133334-9.57866667-20.39466667-30.912-55.36-51.38133333-95.17866666-51.38133333-39.81866667 0-74.784 20.46933333-95.18933334 51.38133333-44.72533333-34.208-108.71466667-31.328-149.61066666 9.57866667-44.55466667 44.55466667-44.55466667 116.78933333 0 161.33333333L401.25866667 355.09333333c6.848 6.848 14.496 12.27733333 22.45333333 17.01333334 20.88533333 26.56 52.93866667 43.936 89.35466667 43.936 36.416 0 68.46933333-17.376 89.35466666-43.936 7.95733333-4.74666667 15.60533333-10.16533333 22.45333334-17.01333334L757.86666667 222.10133333c44.55466667-44.55466667 44.55466667-116.77866667 0-161.33333333z" fill="#EA541F" p-id="5060"></path><path d="M629.792 428.45866667l-117.01333333 117.01333333-117.01333334-117.01333333c-6.76266667-6.76266667-17.728-6.76266667-24.49066666 0s-6.76266667 17.728 0 24.49066666l99.70133333 99.70133334h-88.65066667c-9.568 0-17.32266667 7.75466667-17.32266666 17.32266666 0 9.568 7.75466667 17.32266667 17.32266666 17.32266667h113.44v72.736H379.62666667c-9.568 0-17.32266667 7.75466667-17.32266667 17.32266667s7.75466667 17.32266667 17.32266667 17.32266666h116.11733333v107.38133334c0 9.568 7.75466667 17.32266667 17.32266667 17.32266666 9.568 0 17.32266667-7.75466667 17.32266666-17.32266666V694.656H646.50666667c9.568 0 17.32266667-7.75466667 17.32266666-17.32266667s-7.75466667-17.32266667-17.32266666-17.32266666H530.38933333v-72.736h113.44c9.568 0 17.32266667-7.75466667 17.32266667-17.32266667 0-9.568-7.75466667-17.32266667-17.32266667-17.32266667h-89.23733333l99.70133333-99.70133333c6.76266667-6.76266667 6.76266667-17.728 0-24.49066667-6.77333333-6.752-17.73866667-6.752-24.50133333 0.02133334z" fill="#FFFFFF" p-id="5061"></path><path d="M513.06666667 825.45066667c-12.91733333 0-23.424-10.51733333-23.424-23.41333334v-101.29066666H379.62666667c-12.90666667 0-23.424-10.51733333-23.424-23.41333334 0-12.91733333 10.51733333-23.43466667 23.424-23.43466666h110.00533333v-60.52266667H382.31466667c-12.91733333 0-23.424-10.51733333-23.424-23.43466667 0-12.896 10.496-23.41333333 23.424-23.41333333h73.92l-89.28-89.29066667a23.30453333 23.30453333 0 0 1-6.848-16.56533333c0-6.25066667 2.432-12.128 6.848-16.544 9.13066667-9.152 24-9.152 33.13066666 0L512.768 536.85333333l112.704-112.704c8.84266667-8.864 24.27733333-8.864 33.12 0 4.42666667 4.40533333 6.86933333 10.272 6.86933333 16.52266667 0 6.272-2.432 12.16-6.86933333 16.58666667l-89.26933333 89.29066666h74.496c12.91733333 0 23.43466667 10.51733333 23.43466666 23.41333334 0 12.91733333-10.51733333 23.43466667-23.43466666 23.43466666H536.49066667v60.52266667h110.00533333c12.91733333 0 23.424 10.51733333 23.424 23.43466667 0 12.896-10.496 23.41333333-23.424 23.41333333H536.49066667v101.29066667c0 12.87466667-10.50666667 23.392-23.424 23.392zM379.62666667 666.12266667c-6.18666667 0-11.21066667 5.03466667-11.21066667 11.232 0 6.176 5.03466667 11.2 11.21066667 11.2h122.22933333v113.49333333c0 6.176 5.03466667 11.2 11.21066667 11.2 6.18666667 0 11.21066667-5.03466667 11.21066666-11.2v-113.49333333h122.21866667c6.18666667 0 11.21066667-5.03466667 11.21066667-11.2 0-6.19733333-5.03466667-11.232-11.21066667-11.232H524.288v-84.928h119.53066667c6.18666667 0 11.232-5.03466667 11.232-11.232 0-6.176-5.04533333-11.2-11.232-11.2h-103.95733334l110.10133334-110.13333334c2.12266667-2.12266667 3.28533333-4.93866667 3.28533333-7.936 0-3.008-1.17333333-5.792-3.27466667-7.91466666-4.26666667-4.24533333-11.63733333-4.24533333-15.872 0L512.768 554.112 391.456 432.77866667c-4.384-4.384-11.488-4.384-15.872 0a11.11893333 11.11893333 0 0 0-3.27466667 7.91466666c0 3.008 1.17333333 5.81333333 3.27466667 7.936l110.112 110.13333334h-103.38133333c-6.18666667 0-11.21066667 5.03466667-11.21066667 11.2 0 6.19733333 5.03466667 11.232 11.21066667 11.232h119.53066666v84.928H379.62666667z" fill="#FFFFFF" p-id="5062"></path></svg>