<?xml version="1.0" standalone="no"?><!DOCTYPE svg PUBLIC "-//W3C//DTD SVG 1.1//EN" "http://www.w3.org/Graphics/SVG/1.1/DTD/svg11.dtd"><svg class="icon" width="200px" height="200.00px" viewBox="0 0 1024 1024" version="1.1" xmlns="http://www.w3.org/2000/svg"><path fill="#2a83ff" d="M525.7216 437.1968c-4.44416 0-11.10016-2.22208-15.54432-6.656L383.6416 310.66112c-8.87808-8.87808-11.10016-22.20032-2.22208-31.0784 8.87808-8.87808 22.20032-8.87808 31.0784 0l110.99136 106.55744 117.6576-113.21344c8.87808-8.87808 22.20032-8.87808 31.0784 0s8.87808 22.20032 0 31.0784L539.0336 430.5408c-2.21184 4.43392-8.87808 6.656-13.312 6.656z m0 0"  /><path fill="#2a83ff" d="M681.1136 443.86304H374.76352c-13.32224 0-22.20032-8.87808-22.20032-22.20032 0-13.32224 8.87808-22.20032 22.20032-22.20032h304.128c13.32224 0 22.20032 8.87808 22.20032 22.20032 0 13.312-8.87808 22.20032-19.97824 22.20032z m0 0M681.1136 577.05472H374.76352c-13.32224 0-22.20032-8.87808-22.20032-22.20032 0-13.32224 8.87808-22.20032 22.20032-22.20032h304.128c13.32224 0 22.20032 8.87808 22.20032 22.20032 0 13.312-8.87808 22.20032-19.97824 22.20032z m0 0"  /><path fill="#2a83ff" d="M527.93344 710.2464c-13.32224 0-22.20032-8.87808-22.20032-22.20032V434.97472c0-13.32224 8.87808-22.19008 22.20032-22.19008 13.32224 0 22.20032 8.87808 22.20032 22.19008v253.07136c0 13.32224-8.87808 22.20032-22.20032 22.20032z m0 0"  /><path fill="#2a83ff" d="M472.04352 929.82272c-4.44416 0-8.87808-2.22208-13.32224-4.44416l-88.80128-71.03488c-6.656-6.656-11.10016-15.54432-6.656-24.4224 2.22208-8.87808 11.10016-15.54432 19.97824-15.54432h406.24128c24.4224 0 46.62272-8.87808 62.1568-26.63424 15.53408-15.54432 24.4224-37.74464 24.4224-59.94496l-2.22208-306.35008c0-13.32224 8.87808-22.20032 22.19008-22.20032 11.10016 0 22.20032 8.87808 22.20032 22.20032l2.22208 306.35008c0 35.51232-13.32224 68.8128-37.74464 95.45728-24.4224 24.4224-57.71264 39.95648-93.2352 39.95648H445.39904l39.95648 31.0784c8.87808 6.656 11.10016 22.20032 4.44416 31.0784-4.44416 2.23232-11.10016 4.4544-17.75616 4.4544z m0 0M130.18112 570.20416c-11.10016 0-22.20032-8.87808-22.20032-22.20032l-4.44416-306.35008c0-35.51232 13.32224-68.8128 37.74464-95.45728 26.63424-24.4224 59.93472-39.95648 95.45728-39.95648h341.8624L538.63424 75.1616c-8.87808-6.656-11.10016-22.20032-4.43392-31.0784 6.656-8.87808 22.20032-11.10016 31.0784-4.43392l88.80128 71.03488c6.656 6.656 11.10016 15.54432 6.656 24.4224-4.44416 8.87808-8.87808 15.54432-17.75616 15.54432H236.72832c-24.4224 0-46.62272 11.10016-62.1568 26.64448-17.75616 17.75616-26.63424 39.95648-26.63424 62.1568l2.22208 306.35008c2.21184 13.30176-8.87808 24.40192-19.97824 24.40192z m0 0"  /></svg>